<svg xmlns="http://www.w3.org/2000/svg" width="35.812" height="21.218" viewBox="0 0 35.812 21.218">
  <defs>
    <style>
      .cls-1 {
        fill: #727272;
        fill-rule: evenodd;
      }
    </style>
  </defs>
  <path id="vk" class="cls-1" d="M78.388,627.676H74.463A1.669,1.669,0,0,0,72.8,628.8l-0.6,1.26a33.221,33.221,0,0,1-1.8,3.316,21.645,21.645,0,0,1-2.461,3.383,3.324,3.324,0,0,1-1.829,1.194c-0.422,0-.632-0.375-0.632-1.128v-7.694q0-1.458-1.064-1.459H58.234a1,1,0,0,0-.5.133,1.056,1.056,0,0,0-.366.332,0.81,0.81,0,0,0-.133.464,1.07,1.07,0,0,0,.233.6,6.684,6.684,0,0,0,.5.63,3.4,3.4,0,0,1,.532.962,5.337,5.337,0,0,1,.333,1.591v5.771a2.71,2.71,0,0,1-.166,1.161,0.594,0.594,0,0,1-.565.3q-1.065,0-3.093-3.184a34.073,34.073,0,0,1-3.425-7.229,2.711,2.711,0,0,0-.632-1.194,1.59,1.59,0,0,0-1.1-.332H45.929A1.1,1.1,0,0,0,44.6,628.8a9.43,9.43,0,0,0,.466,2.255,31.216,31.216,0,0,0,1.962,4.61,40.274,40.274,0,0,0,3.758,6.069,17.617,17.617,0,0,0,5.587,5.306A12.5,12.5,0,0,0,62.69,648.9a4.744,4.744,0,0,0,2.328-.365,1.307,1.307,0,0,0,.532-1.161q0-.662-0.067-1.724A14.381,14.381,0,0,1,65.617,643a0.829,0.829,0,0,1,.931-0.464q1.263,0,3.924,2.52,0.664,0.664,1.33,1.393t1,1.127a5.626,5.626,0,0,0,.732.73,2.778,2.778,0,0,0,.732.464,2.139,2.139,0,0,0,.8.133h3.924q1.8,0,1.33-1.658a7.852,7.852,0,0,0-.7-1.327,14.652,14.652,0,0,0-1.131-1.558q-0.633-.762-1.364-1.559t-1.33-1.393q-0.6-.6-1.463-1.526a2.3,2.3,0,0,1-.4-0.928,1.938,1.938,0,0,1,.4-0.862q0.066-.066,1.2-1.758t2.494-3.947a12.33,12.33,0,0,0,1.563-3.25q0.4-1.458-1.2-1.459h0Z" transform="translate(-44.594 -627.688)"/>
</svg>
