<svg xmlns="http://www.w3.org/2000/svg" width="33" height="31" viewBox="0 0 33 31">
  <defs>
    <style>
      .cls-1 {
        fill-rule: evenodd;
      }
    </style>
  </defs>
  <path id="zoom" class="cls-1" d="M14.55,2.124c6.663-.09,10.64,3.4,12.455,8.094,1.594,4.126.287,10.023-2.27,12.2l0.029,0.057,6.46,6.343L31.2,28.9,29.886,30.2l-0.058-.029L23.4,23.8l-0.087.029C20.9,26.393,15.062,27.575,10.8,25.948a12.277,12.277,0,0,1,.262-23.135A13.368,13.368,0,0,1,14.55,2.124ZM14.7,4.248a11.343,11.343,0,0,0-2.386.4,10.236,10.236,0,0,0-6.751,6.229C2.9,17.7,8.863,25.534,16.034,24.6c4.406-.574,7.351-2.81,8.788-6.286C27.915,10.834,22.007,4.212,14.7,4.248Z"/>
</svg>
