<svg xmlns="http://www.w3.org/2000/svg" width="31" height="31" viewBox="0 0 31 31">
  <defs>
    <style>
      .cls-1 {
        fill-rule: evenodd;
      }
    </style>
  </defs>
  <path id="home" class="cls-1" d="M29.838,13.1a0.71,0.71,0,0,1,.156.992l-0.034.046a0.71,0.71,0,0,1-.992.156L15.891,4.771,2.814,14.3a0.71,0.71,0,0,1-.992-0.156L1.789,14.1A0.71,0.71,0,0,1,1.944,13.1L15.891,2.944Zm-13.945,5.22a2.32,2.32,0,0,1,2.215,1.959V27.7h0v0.057a0.708,0.708,0,0,0,.258.548l0.027,0.021a0.708,0.708,0,0,0,.425.141h7.464a0.71,0.71,0,0,0,.71-0.71V15.172a0.71,0.71,0,0,0-.71-0.71H26.226a0.71,0.71,0,0,0-.71.71V26.985H19.585v-6.7c0-.392-0.714-3.436-3.692-3.436H15.85c-2.978,0-3.692,3.044-3.692,3.436v6.7H6.228V15.172a0.71,0.71,0,0,0-.71-0.71H5.461a0.71,0.71,0,0,0-.71.71v12.58a0.71,0.71,0,0,0,.71.71h7.464a0.708,0.708,0,0,0,.425-0.141l0.027-.021a0.708,0.708,0,0,0,.258-0.548V27.7h0V20.284a2.32,2.32,0,0,1,2.215-1.959h0.044Z"/>
</svg>
