<svg xmlns="http://www.w3.org/2000/svg" width="30.969" height="27.406" viewBox="0 0 30.969 27.406">
  <defs>
    <style>
      .cls-1 {
        fill-rule: evenodd;
      }
    </style>
  </defs>
  <path id="fav" class="cls-1" d="M8.565,1.912a7.86,7.86,0,0,1,6.2,2.343A9.765,9.765,0,0,1,16.513,6.69C17.941,3.957,21.479.619,26.667,2.372a7.919,7.919,0,0,1,4.365,3.951,11.19,11.19,0,0,1,.184,8.546c-1.891,4.355-5.952,7.012-9.235,10.016l-3.951,3.4a3.653,3.653,0,0,1-1.286.965c-0.742.177-1.446-.753-1.884-1.1L9.576,23.6C5.7,20.32-.932,15.162,1.536,7.471A8.471,8.471,0,0,1,2.868,4.99,8.534,8.534,0,0,1,6.819,2.234Z" transform="translate(-1 -1.875)"/>
</svg>
