<svg xmlns="http://www.w3.org/2000/svg" width="31.625" height="22.188" viewBox="0 0 31.625 22.188">
  <defs>
    <style>
      .cls-1 {
        fill: #727272;
        fill-rule: evenodd;
      }
    </style>
  </defs>
  <path id="yout" class="cls-1" d="M59.643,595.134l8.539,4.452-8.539,4.4v-8.85Zm-7.8-6c-0.012,0-.112.009-0.3,0.026s-0.324.036-.406,0.053-0.221.044-.415,0.079a2.56,2.56,0,0,0-.5.141q-0.212.089-.494,0.229a3.391,3.391,0,0,0-.547.343,4.179,4.179,0,0,0-.512.466l-0.247.3a4.484,4.484,0,0,0-.565,1.082,7,7,0,0,0-.441,1.751,37.15,37.15,0,0,0-.318,5.1v3.1q0.017,0.723.1,2t0.221,2.4a6.684,6.684,0,0,0,.468,1.777,5.917,5.917,0,0,0,.512,1.029,3.247,3.247,0,0,0,.273.325,3.52,3.52,0,0,0,1,.722,5.322,5.322,0,0,0,.9.369,8.174,8.174,0,0,0,.961.176l0.635,0.071,0.864,0.07q0.847,0.053,3.537.132t6.343,0.114q6.634,0,11.062-.334c0.012,0,.109-0.009.291-0.026s0.318-.036.406-0.053,0.229-.044.423-0.079a2.49,2.49,0,0,0,.5-0.141q0.212-.088.494-0.22a2.977,2.977,0,0,0,.547-0.334,4.2,4.2,0,0,0,.512-0.467l0.247-.3a4.468,4.468,0,0,0,.565-1.082,7,7,0,0,0,.441-1.75,37.207,37.207,0,0,0,.317-5.1V598q-0.018-.721-0.1-2T78.4,593.6a6.685,6.685,0,0,0-.468-1.777,5.9,5.9,0,0,0-.512-1.029,3.433,3.433,0,0,0-.273-0.326,4.193,4.193,0,0,0-.512-0.466,3.409,3.409,0,0,0-.547-0.343q-0.282-.141-0.494-0.229a2.557,2.557,0,0,0-.5-0.141c-0.194-.035-0.332-0.061-0.415-0.079s-0.218-.035-0.406-0.053-0.288-.026-0.3-0.026l-1.288-.07q-1.288-.089-4.049-0.167t-5.725-.08q-6.634,0-11.062.317h0Z" transform="translate(-47.094 -588.812)"/>
</svg>
