<svg xmlns="http://www.w3.org/2000/svg" width="18.375" height="21.375" viewBox="0 0 18.375 21.375">
  <defs>
    <style>
      .cls-1 {
        fill: #727272;
        fill-rule: evenodd;
      }
    </style>
  </defs>
  <path id="admin" class="cls-1" d="M201.411,514.357a5.934,5.934,0,0,0-.485-2.368,6.051,6.051,0,0,0-3.265-3.256,6.078,6.078,0,0,0-4.749,0,6.06,6.06,0,0,0-3.265,3.256,6.033,6.033,0,0,0,.46,5.612,5.148,5.148,0,0,0-1.07.453,4.71,4.71,0,0,0-1.065.871,5.623,5.623,0,0,0-.951,1.378,8.668,8.668,0,0,0-.658,2.051,13.867,13.867,0,0,0-.263,2.821,4.492,4.492,0,0,0,1.2,3.143,3.772,3.772,0,0,0,2.883,1.306h10.215a3.77,3.77,0,0,0,2.883-1.306,4.492,4.492,0,0,0,1.2-3.143,13.867,13.867,0,0,0-.263-2.821,8.668,8.668,0,0,0-.658-2.051,5.6,5.6,0,0,0-.951-1.378,4.71,4.71,0,0,0-1.065-.871,5.148,5.148,0,0,0-1.07-.453,5.943,5.943,0,0,0,.945-3.244h0Zm-1.531,0a4.589,4.589,0,1,1-1.346-3.239A4.408,4.408,0,0,1,199.88,514.357Zm-9.7,13.74a2.312,2.312,0,0,1-1.8-.852,3.035,3.035,0,0,1-.748-2.07,9.1,9.1,0,0,1,.939-4.5,3.14,3.14,0,0,1,2.7-1.729,6.088,6.088,0,0,0,8.038,0,3.14,3.14,0,0,1,2.7,1.729,9.1,9.1,0,0,1,.939,4.5,3.03,3.03,0,0,1-.748,2.07,2.312,2.312,0,0,1-1.8.852H190.179Z" transform="translate(-186.094 -508.25)"/>
</svg>
