<svg xmlns="http://www.w3.org/2000/svg" width="33" height="31" viewBox="0 0 33 31">
  <defs>
    <style>
      .cls-1 {
        fill-rule: evenodd;
      }
    </style>
  </defs>
  <path id="share" class="cls-1" d="M32.662,12.611L17.592,24.867l-0.048-7.583s-0.382.011-.811,0.048a13.481,13.481,0,0,0-1.335.191,15.422,15.422,0,0,0-3.958,1.192C7.713,20.585,5.1,22.667,3.189,26.25a47.606,47.606,0,0,0-2.623,6.1H0.519v-7.63a3.24,3.24,0,0,0,.048-0.668C0.7,23.489.654,22.928,0.8,22.339a22.1,22.1,0,0,1,1-3.338,18.8,18.8,0,0,1,6.963-8.346A19.919,19.919,0,0,1,10.82,9.606a18.366,18.366,0,0,1,6.724-1.717V0.259Z"/>
</svg>
