<svg xmlns="http://www.w3.org/2000/svg" width="25" height="25" viewBox="0 0 25 25">
  <defs>
    <style>
      .cls-1 {
        fill-rule: evenodd;
      }
    </style>
  </defs>
  <path id="talk" class="cls-1" d="M11.775,0.626c6.2-.08,10.122,2.7,12.2,6.741a11.058,11.058,0,0,1-.626,10.125c-1.977,2.852-6.6,6.439-12.059,5.6a24.425,24.425,0,0,1-3.953-.939c-0.638.539-6.069,2.569-7.2,2.133L0,23.834c1.126-1.3,1.408-2.8,1.849-4.863l0.142-1.024L1.109,16.553A9.855,9.855,0,0,1,.085,10.41C1.06,5.5,4.171,2.623,8.589,1.166A11.957,11.957,0,0,1,11.775.626ZM6.684,10.182A1.678,1.678,0,1,1,5.006,11.86,1.678,1.678,0,0,1,6.684,10.182Zm5.835,0a1.678,1.678,0,1,1-1.678,1.678A1.678,1.678,0,0,1,12.519,10.182Zm5.806,0a1.678,1.678,0,1,1-1.678,1.678A1.678,1.678,0,0,1,18.324,10.182Z"/>
</svg>
