<svg xmlns="http://www.w3.org/2000/svg" width="21.906" height="29.219" viewBox="0 0 21.906 29.219">
  <defs>
    <style>
      .cls-1 {
        fill-rule: evenodd;
      }
    </style>
  </defs>
  <path id="location" class="cls-1" d="M16.3,1.093A10.955,10.955,0,0,1,27.255,12.048c0,5.17-8,15.171-10.327,17.971a0.812,0.812,0,0,1-1.256,0c-2.327-2.8-10.327-12.8-10.327-17.97A10.955,10.955,0,0,1,16.3,1.093Zm0,2.139a8.816,8.816,0,0,1,8.816,8.816c0,4.869-8.816,15.207-8.816,15.207S7.484,16.917,7.484,12.048A8.816,8.816,0,0,1,16.3,3.231Zm0,4.5a4.319,4.319,0,1,1-4.319,4.319A4.319,4.319,0,0,1,16.3,7.728Zm0,2.1a2.217,2.217,0,1,1-2.219,2.217A2.218,2.218,0,0,1,16.3,9.831Z" transform="translate(-5.344 -1.094)"/>
</svg>
