<svg xmlns="http://www.w3.org/2000/svg" width="23.813" height="28.719" viewBox="0 0 23.813 28.719">
  <defs>
    <style>
      .cls-1 {
        fill: #727272;
        fill-rule: evenodd;
      }
    </style>
  </defs>
  <path id="youtube" class="cls-1" d="M117.077,639.265a1.033,1.033,0,0,0-.723.352v4.823a1.03,1.03,0,0,0,.723.353q0.627,0,.627-1.074v-3.381q0-1.072-.627-1.073h0Zm5.335,0q-0.723,0-.723,1.089v0.737h1.446v-0.737Q123.135,639.265,122.412,639.265Zm-14.8,6.714h-1.607v-9.118h-1.687v-1.506h5.014v1.506h-1.72v9.118Zm4.628-.866a2.353,2.353,0,0,1-1.639.978,0.866,0.866,0,0,1-.932-0.593,3.943,3.943,0,0,1-.128-1.17v-6.265h1.43V643.9a4.371,4.371,0,0,0,.016.56,0.328,0.328,0,0,0,.337.337,1.278,1.278,0,0,0,.916-0.673v-6.057h1.43v7.916h-1.43v-0.866Zm6.749,0.1a1.112,1.112,0,0,1-1.141.881,2,2,0,0,1-1.494-.881v0.769h-1.43V635.355h1.43v3.477a1.935,1.935,0,0,1,1.494-.865,1.115,1.115,0,0,1,1.141.9,5.658,5.658,0,0,1,.145,1.586v3.157a5.854,5.854,0,0,1-.145,1.6h0Zm5.544-.834a1.985,1.985,0,0,1-2.073,1.715,2.064,2.064,0,0,1-1.735-.817,3,3,0,0,1-.466-1.859v-2.772a3.084,3.084,0,0,1,.45-1.859,2.2,2.2,0,0,1,3.423,0,3.175,3.175,0,0,1,.434,1.859v1.65h-2.877v1.394q0,1.106.739,1.106a0.614,0.614,0,0,0,.643-0.577,8.023,8.023,0,0,0,.032-0.977h1.463v0.208a6.848,6.848,0,0,1-.033.929h0ZM114.1,629.938q-0.69,0-.691-1.121v-3.366q0-1.105.691-1.105t0.691,1.105v3.366Q114.8,629.938,114.1,629.938Zm11.827,5.3a3.014,3.014,0,0,0-2.571-2.339q-2.957-.321-8.918-0.321t-8.9.321a2.92,2.92,0,0,0-1.655.753,3.043,3.043,0,0,0-.932,1.586,27.661,27.661,0,0,0-.418,5.609,27.07,27.07,0,0,0,.418,5.608,2.925,2.925,0,0,0,.924,1.587,2.855,2.855,0,0,0,1.647.737,86.229,86.229,0,0,0,8.919.337,86.22,86.22,0,0,0,8.918-.337,2.816,2.816,0,0,0,1.639-.737,3.039,3.039,0,0,0,.932-1.587,27.643,27.643,0,0,0,.418-5.608,27.1,27.1,0,0,0-.418-5.609h0Zm-16.712-10.624-1.141-4.214h-1.7q0.45,1.346,1.044,3a27.218,27.218,0,0,1,.981,3.4v4.342h1.607V626.8l1.944-6.394h-1.639Zm6.589-.753a2.168,2.168,0,0,0-3.391,0,3.117,3.117,0,0,0-.45,1.875v2.8a3.2,3.2,0,0,0,.45,1.891,2.168,2.168,0,0,0,3.391,0,3.157,3.157,0,0,0,.45-1.891v-2.8a3.124,3.124,0,0,0-.45-1.875h0Zm4.371-.721v6.105a1.28,1.28,0,0,1-.916.689,0.335,0.335,0,0,1-.338-0.352,4.153,4.153,0,0,1-.016-0.561v-5.881h-1.462v6.314a4.089,4.089,0,0,0,.128,1.2,0.892,0.892,0,0,0,.948.593,2.316,2.316,0,0,0,1.656-.993v0.881h1.462v-8h-1.462Z" transform="translate(-102.531 -620.406)"/>
</svg>
