<svg xmlns="http://www.w3.org/2000/svg" width="28.406" height="28.25" viewBox="0 0 28.406 28.25">
  <defs>
    <style>
      .cls-1 {
        fill-rule: evenodd;
      }
    </style>
  </defs>
  <path id="clock" class="cls-1" d="M16.45,1.225A14.125,14.125,0,1,1,2.234,15.35,14.17,14.17,0,0,1,16.45,1.225Zm0,2.106A12.019,12.019,0,1,1,4.353,15.35,12.058,12.058,0,0,1,16.45,3.331Zm4.142,16.624a0.92,0.92,0,0,0,1.282-.221l0.212-.3a0.92,0.92,0,0,0-.221-1.282L17.6,15.141V8.771a0.92,0.92,0,0,0-.92-0.92H16.312a0.92,0.92,0,0,0-.92.92v7.514Z" transform="translate(-2.25 -1.219)"/>
</svg>
