<svg xmlns="http://www.w3.org/2000/svg" width="31.688" height="22.438" viewBox="0 0 31.688 22.438">
  <defs>
    <style>
      .cls-1 {
        fill-rule: evenodd;
      }
    </style>
  </defs>
  <path id="view" class="cls-1" d="M16.544,4.289c9.985,0,15.8,11.211,15.8,11.211S26.529,26.71,16.544,26.71,0.657,15.5.657,15.5,6.558,4.289,16.544,4.289Zm-0.009,2.5c7.991,0,12.644,8.709,12.644,8.709s-4.653,8.8-12.644,8.8S3.821,15.5,3.821,15.5,8.544,6.79,16.535,6.79Zm-0.574,3.978a4.753,4.753,0,1,1-4.753,4.753A4.753,4.753,0,0,1,15.961,10.769ZM13.8,10.637a2.688,2.688,0,1,1-2.688,2.688A2.688,2.688,0,0,1,13.8,10.637Z" transform="translate(-0.656 -4.281)"/>
</svg>
