<svg xmlns="http://www.w3.org/2000/svg" width="25.094" height="27.031" viewBox="0 0 25.094 27.031">
  <defs>
    <style>
      .cls-1 {
        fill-rule: evenodd;
      }
    </style>
  </defs>
  <path id="calendar" class="cls-1" d="M2.533,21.467H6.875v4.342H2.533V21.467Zm5.307,0h4.824v4.342H7.84V21.467ZM2.533,15.678H6.875V20.5H2.533V15.678Zm5.307,0h4.824V20.5H7.84V15.678ZM2.533,10.372H6.875v4.342H2.533V10.372Zm11.1,11.1h4.824v4.342H13.629V21.467ZM7.84,10.372h4.824v4.342H7.84V10.372Zm11.578,11.1h4.342v4.342H19.418V21.467Zm-5.789-5.789h4.824V20.5H13.629V15.678ZM8.179,7.816a0.464,0.464,0,0,1-.339.143H6.875a0.489,0.489,0,0,1-.482-0.482V3.135a0.489,0.489,0,0,1,.482-0.482H7.84a0.489,0.489,0,0,1,.482.482V7.477A0.464,0.464,0,0,1,8.179,7.816Zm11.239,7.862h4.342V20.5H19.418V15.678Zm-5.789-5.306h4.824v4.342H13.629V10.372Zm5.789,0h4.342v4.342H19.418V10.372Zm0.339-2.555a0.464,0.464,0,0,1-.339.143H18.453a0.489,0.489,0,0,1-.482-0.482V3.135a0.489,0.489,0,0,1,.482-0.482h0.965a0.489,0.489,0,0,1,.482.482V7.477A0.464,0.464,0,0,1,19.757,7.816Zm5.359-2.661a1.855,1.855,0,0,0-1.357-.573H21.83V3.135a2.323,2.323,0,0,0-.709-1.7,2.323,2.323,0,0,0-1.7-.709H18.453a2.323,2.323,0,0,0-1.7.709,2.322,2.322,0,0,0-.708,1.7V4.583H10.252V3.135a2.323,2.323,0,0,0-.709-1.7A2.323,2.323,0,0,0,7.84.723H6.875a2.323,2.323,0,0,0-1.7.709,2.322,2.322,0,0,0-.709,1.7V4.583H2.533a1.855,1.855,0,0,0-1.357.573A1.854,1.854,0,0,0,.6,6.512v19.3a1.854,1.854,0,0,0,.573,1.357,1.854,1.854,0,0,0,1.357.573H23.759a1.957,1.957,0,0,0,1.93-1.93V6.512A1.855,1.855,0,0,0,25.116,5.155Z" transform="translate(-0.594 -0.719)"/>
</svg>
