<svg xmlns="http://www.w3.org/2000/svg" xmlns:xlink="http://www.w3.org/1999/xlink"><symbol id="icon-admin" viewBox="0 0 18.375 21.375"><path d="M15.317 6.107a5.934 5.934 0 00-.485-2.368A6.051 6.051 0 0011.567.483a6.078 6.078 0 00-4.749 0 6.06 6.06 0 00-3.265 3.256 6.033 6.033 0 00.46 5.612 5.148 5.148 0 00-1.07.453 4.71 4.71 0 00-1.065.871 5.623 5.623 0 00-.951 1.378 8.668 8.668 0 00-.658 2.051 13.867 13.867 0 00-.263 2.821 4.492 4.492 0 001.2 3.143 3.772 3.772 0 002.883 1.306h10.215a3.77 3.77 0 002.883-1.306 4.492 4.492 0 001.2-3.143 13.867 13.867 0 00-.263-2.821 8.668 8.668 0 00-.658-2.051 5.6 5.6 0 00-.951-1.378 4.71 4.71 0 00-1.065-.871 5.148 5.148 0 00-1.07-.453 5.943 5.943 0 00.945-3.244zm-1.531 0a4.589 4.589 0 11-1.346-3.239 4.408 4.408 0 011.346 3.239zm-9.7 13.74a2.312 2.312 0 01-1.8-.852 3.035 3.035 0 01-.748-2.07 9.1 9.1 0 01.939-4.5 3.14 3.14 0 012.7-1.729 6.088 6.088 0 008.038 0 3.14 3.14 0 012.7 1.729 9.1 9.1 0 01.939 4.5 3.03 3.03 0 01-.748 2.07 2.312 2.312 0 01-1.8.852H4.085z" fill-rule="evenodd"/></symbol><symbol id="icon-arr-left" viewBox="0 0 15 26"><path fill-rule="evenodd" clip-rule="evenodd" d="M0 12.847l2.341 2.341.009-.008 9.941 9.941 2.341-2.34-9.941-9.942 9.941-9.941-2.34-2.342-9.942 9.942-.009-.009L0 12.83l.009.009-.009.008z"/></symbol><symbol id="icon-arr-right" viewBox="0 0 15 26"><path fill-rule="evenodd" clip-rule="evenodd" d="M14.632 12.83l-2.341-2.34-.008.008L2.34.556 0 2.898l9.941 9.94L0 22.78l2.341 2.341 9.941-9.941.009.009 2.341-2.342-.008-.008.008-.009z"/></symbol><symbol id="icon-arr_down" viewBox="0 0 10 5"><path fill-rule="evenodd" clip-rule="evenodd" d="M5 3.847L8.689.14a.473.473 0 01.672 0 .48.48 0 010 .675L5.336 4.86a.473.473 0 01-.672 0L.639.815a.48.48 0 010-.675.473.473 0 01.672 0L5 3.847z"/></symbol><symbol id="icon-calendar" viewBox="0 0 25.094 27.031"><path d="M1.939 20.748h4.342v4.342H1.939v-4.342zm5.307 0h4.824v4.342H7.246v-4.342zm-5.307-5.789h4.342v4.822H1.939v-4.822zm5.307 0h4.824v4.822H7.246v-4.822zM1.939 9.653h4.342v4.342H1.939V9.653zm11.1 11.1h4.824v4.342h-4.828v-4.347zm-5.793-11.1h4.824v4.342H7.246V9.653zm11.578 11.1h4.342v4.342h-4.342v-4.347zm-5.789-5.789h4.824v4.817h-4.824v-4.822zm-5.45-7.867a.464.464 0 01-.339.143h-.965a.489.489 0 01-.482-.482V2.416a.489.489 0 01.482-.482h.965a.489.489 0 01.482.482v4.342a.464.464 0 01-.143.339zm11.239 7.862h4.342v4.822h-4.342v-4.822zm-5.789-5.306h4.824v4.342h-4.824V9.653zm5.789 0h4.342v4.342h-4.342V9.653zm.339-2.555a.464.464 0 01-.339.143h-.965a.489.489 0 01-.482-.482V2.416a.489.489 0 01.482-.482h.965a.489.489 0 01.482.482v4.342a.464.464 0 01-.143.339zm5.359-2.661a1.855 1.855 0 00-1.357-.573h-1.929V2.416a2.323 2.323 0 00-.709-1.7 2.323 2.323 0 00-1.7-.709h-.968a2.323 2.323 0 00-1.7.709 2.322 2.322 0 00-.708 1.7v1.448H9.658V2.416a2.323 2.323 0 00-.709-1.7A2.323 2.323 0 007.246.004h-.965a2.323 2.323 0 00-1.7.709 2.322 2.322 0 00-.709 1.7v1.451H1.939a1.855 1.855 0 00-1.357.573 1.854 1.854 0 00-.576 1.356v19.3a1.854 1.854 0 00.573 1.357 1.854 1.854 0 001.357.573h21.229a1.957 1.957 0 001.93-1.93v-19.3a1.855 1.855 0 00-.573-1.357z" fill-rule="evenodd"/></symbol><symbol id="icon-cat" viewBox="0 0 23 20"><path d="M4.414 7.805L0 5.641 11.5 0 23 5.641l-4.414 2.164L23 9.97l-4.474 2.195L23 14.359 11.5 20 0 14.359l4.474-2.195L0 9.97zM21.1 5.641L11.48.955 1.856 5.641l9.62 4.686zM1.856 14.359l9.62 4.686 9.62-4.686-3.535-1.722-6.061 2.974-6.085-2.985zm9.62.3L21.1 9.97l-3.478-1.692-6.122 3-6.146-3.011-3.5 1.7z" fill-rule="evenodd"/></symbol><symbol id="icon-check" viewBox="0 0 14 10"><path fill-rule="evenodd" clip-rule="evenodd" d="M13.707.293a1 1 0 010 1.414l-8 8a1 1 0 01-1.414 0l-4-4a1 1 0 011.414-1.414L5 7.586 12.293.293a1 1 0 011.414 0z"/></symbol><symbol id="icon-clock" viewBox="0 0 28.406 28.25"><path d="M14.2.006A14.125 14.125 0 11-.016 14.131 14.17 14.17 0 0114.2.006zm0 2.106A12.019 12.019 0 112.103 14.131 12.058 12.058 0 0114.2 2.112zm4.142 16.624a.92.92 0 001.282-.221l.212-.3a.92.92 0 00-.221-1.282l-4.265-3.011v-6.37a.92.92 0 00-.92-.92h-.368a.92.92 0 00-.92.92v7.514z" fill-rule="evenodd"/></symbol><symbol id="icon-close" viewBox="0 0 14 14"><path fill-rule="evenodd" clip-rule="evenodd" d="M.293.293a1 1 0 011.414 0L7 5.586 12.293.293a1 1 0 111.414 1.414L8.414 7l5.293 5.293a1 1 0 01-1.414 1.414L7 8.414l-5.293 5.293a1 1 0 01-1.414-1.414L5.586 7 .293 1.707a1 1 0 010-1.414z"/></symbol><symbol id="icon-fav" viewBox="0 0 30.969 27.406"><path d="M7.565.037a7.86 7.86 0 016.2 2.343 9.765 9.765 0 011.748 2.435c1.428-2.733 4.966-6.071 10.154-4.318a7.919 7.919 0 014.365 3.951 11.19 11.19 0 01.184 8.546c-1.891 4.355-5.952 7.012-9.235 10.016l-3.951 3.4a3.653 3.653 0 01-1.286.965c-.742.177-1.446-.753-1.884-1.1l-5.284-4.55C4.7 18.445-1.932 13.287.536 5.596a8.471 8.471 0 011.332-2.481A8.534 8.534 0 015.819.359z" fill-rule="evenodd"/></symbol><symbol id="icon-home" viewBox="0 0 31 31"><path d="M29.838 13.1a.71.71 0 01.156.992l-.034.046a.71.71 0 01-.992.156L15.891 4.771 2.814 14.3a.71.71 0 01-.992-.156l-.033-.044a.71.71 0 01.155-1L15.891 2.944zm-13.945 5.22a2.32 2.32 0 012.215 1.959V27.757a.708.708 0 00.258.548l.027.021a.708.708 0 00.425.141h7.464a.71.71 0 00.71-.71V15.172a.71.71 0 00-.71-.71h-.056a.71.71 0 00-.71.71v11.813h-5.931v-6.7c0-.392-.714-3.436-3.692-3.436h-.043c-2.978 0-3.692 3.044-3.692 3.436v6.7h-5.93V15.172a.71.71 0 00-.71-.71h-.057a.71.71 0 00-.71.71v12.58a.71.71 0 00.71.71h7.464a.708.708 0 00.425-.141l.027-.021a.708.708 0 00.258-.548v-7.468a2.32 2.32 0 012.215-1.959h.044z" fill-rule="evenodd"/></symbol><symbol id="icon-location" viewBox="0 0 21.906 29.219"><path d="M10.956-.001a10.955 10.955 0 0110.955 10.955c0 5.17-8 15.171-10.327 17.971a.812.812 0 01-1.256 0C8.001 26.125.001 16.125.001 10.955A10.955 10.955 0 0110.956-.001zm0 2.139a8.816 8.816 0 018.816 8.816c0 4.869-8.816 15.207-8.816 15.207S2.14 15.823 2.14 10.954a8.816 8.816 0 018.816-8.817zm0 4.5a4.319 4.319 0 11-4.319 4.319 4.319 4.319 0 014.319-4.323zm0 2.1a2.217 2.217 0 11-2.219 2.217 2.218 2.218 0 012.219-2.218z" fill-rule="evenodd"/></symbol><symbol id="icon-menu-close" viewBox="0 0 30 30"><path fill-rule="evenodd" stroke-width="3" d="M27.228 3.186L15.914 14.5l11.314 11.314-1.414 1.414L14.5 15.914 3.186 27.228l-1.414-1.414L13.086 14.5 1.772 3.186l1.414-1.414L14.5 13.086 25.814 1.772l1.414 1.414z"/></symbol><symbol id="icon-menu-open" viewBox="0 0 32 19"><path d="M0 16h32v3H0v-3zm0-8h32v3H0V8zm0-8h32v3H0V0z" fill-rule="evenodd"/></symbol><symbol id="icon-share" viewBox="0 0 33 31"><path d="M32.662 12.611l-15.07 12.256-.048-7.583s-.382.011-.811.048a13.481 13.481 0 00-1.335.191 15.422 15.422 0 00-3.958 1.192c-3.727 1.87-6.34 3.952-8.251 7.535a47.606 47.606 0 00-2.623 6.1H.519v-7.63a3.24 3.24 0 00.048-.668c.133-.563.087-1.124.233-1.713a22.1 22.1 0 011-3.338 18.8 18.8 0 016.963-8.346 19.919 19.919 0 012.057-1.049 18.366 18.366 0 016.724-1.717V.259z" fill-rule="evenodd"/></symbol><symbol id="icon-soc-fb" viewBox="0 0 10 18"><path fill-rule="evenodd" clip-rule="evenodd" d="M9.623.004L7.225 0C4.53 0 2.789 1.739 2.789 4.43v2.042H.377A.372.372 0 000 6.84V9.8c0 .203.169.367.377.367H2.79v7.467c0 .203.169.367.377.367h3.146a.372.372 0 00.378-.367v-7.467h2.82a.372.372 0 00.376-.367l.002-2.96c0-.097-.04-.19-.11-.26a.383.383 0 00-.268-.107H6.69V4.741c0-.832.203-1.255 1.317-1.255h1.616A.372.372 0 0010 3.119V.37a.372.372 0 00-.377-.367z"/></symbol><symbol id="icon-soc-inst" viewBox="0 0 18 18"><path fill-rule="evenodd" clip-rule="evenodd" d="M9 .5c2.309 0 2.598.01 3.505.051.904.041 1.522.185 2.063.395a4.166 4.166 0 011.505.98c.473.473.764.947.98 1.506.21.54.355 1.159.396 2.063.041.907.051 1.197.051 3.505 0 2.309-.01 2.598-.051 3.505-.041.904-.185 1.522-.395 2.063a4.167 4.167 0 01-.98 1.505 4.167 4.167 0 01-1.506.98c-.54.21-1.159.355-2.063.396-.907.041-1.197.051-3.505.051s-2.598-.01-3.505-.051c-.904-.041-1.522-.185-2.063-.395a4.167 4.167 0 01-1.505-.98 4.166 4.166 0 01-.98-1.506c-.21-.54-.355-1.159-.396-2.063C.51 11.598.5 11.308.5 9s.01-2.598.051-3.505c.041-.904.185-1.522.395-2.063a4.166 4.166 0 01.98-1.505 4.166 4.166 0 011.506-.98C3.972.736 4.591.591 5.495.55 6.402.51 6.692.5 9 .5zm-.003 11.33a2.833 2.833 0 100-5.665 2.833 2.833 0 000 5.665zm0-7.196a4.363 4.363 0 110 8.727 4.363 4.363 0 010-8.727zm5.859-.262a1.039 1.039 0 11-2.078 0 1.039 1.039 0 012.078 0z"/></symbol><symbol id="icon-soc-tgm" viewBox="0 0 22 22"><path d="M20.515 2.118L1.027 9.45c-1.33.52-1.322 1.245-.244 1.567l5.004 1.523 11.576-7.125c.547-.325 1.047-.15.636.205L8.62 13.878h-.002l.002.001-.345 5.031c.506 0 .729-.226 1.012-.493l2.43-2.305 5.056 3.642c.931.501 1.6.244 1.833-.841l3.318-15.257c.34-1.329-.52-1.93-1.409-1.538z"/></symbol><symbol id="icon-soc-tw" viewBox="0 0 18 16"><path fill-rule="evenodd" clip-rule="evenodd" d="M17.979 2.363a.088.088 0 00-.105-.024 7.152 7.152 0 01-1.687.516A3.777 3.777 0 0017.504.988a.09.09 0 00-.03-.098.089.089 0 00-.101-.007 7.177 7.177 0 01-2.245.874A3.745 3.745 0 0012.428.6c-2.066 0-3.746 1.696-3.746 3.781 0 .252.024.502.072.744A10.297 10.297 0 011.4 1.31a.09.09 0 00-.147.012 3.806 3.806 0 00-.507 1.9c0 1.16.522 2.243 1.41 2.958a3.557 3.557 0 01-1.307-.426.088.088 0 00-.088 0 .09.09 0 00-.045.077v.048A3.79 3.79 0 003.349 9.49c-.408.066-.83.062-1.245-.018a.09.09 0 00-.102.116A3.752 3.752 0 005.253 12.2a7.154 7.154 0 01-4.292 1.412c-.287 0-.577-.017-.861-.05a.09.09 0 00-.095.058.09.09 0 00.036.106A10.38 10.38 0 005.694 15.4c6.568 0 10.492-5.385 10.492-10.591 0-.145-.002-.29-.008-.433a7.51 7.51 0 001.807-1.905.091.091 0 00-.006-.108z"/></symbol><symbol id="icon-soc-vk" viewBox="0 0 35.812 21.218"><path d="M33.794-.012h-3.925a1.669 1.669 0 00-1.663 1.124l-.6 1.26a33.221 33.221 0 01-1.8 3.316 21.645 21.645 0 01-2.461 3.383 3.324 3.324 0 01-1.829 1.194c-.422 0-.632-.375-.632-1.128V1.443q0-1.458-1.064-1.459h-6.18a1 1 0 00-.5.133 1.056 1.056 0 00-.366.332.81.81 0 00-.133.464 1.07 1.07 0 00.233.6 6.684 6.684 0 00.5.63 3.4 3.4 0 01.532.962 5.337 5.337 0 01.333 1.591v5.771a2.71 2.71 0 01-.166 1.161.594.594 0 01-.565.3q-1.065 0-3.093-3.184A34.073 34.073 0 016.99 1.515 2.711 2.711 0 006.358.321a1.59 1.59 0 00-1.1-.332H1.335A1.1 1.1 0 00.006 1.112a9.43 9.43 0 00.466 2.255 31.216 31.216 0 001.962 4.61 40.274 40.274 0 003.758 6.069 17.617 17.617 0 005.587 5.306 12.5 12.5 0 006.317 1.86 4.744 4.744 0 002.328-.365 1.307 1.307 0 00.532-1.161q0-.662-.067-1.724a14.381 14.381 0 01.134-2.65.829.829 0 01.931-.464q1.263 0 3.924 2.52.664.664 1.33 1.393t1 1.127a5.626 5.626 0 00.732.73 2.778 2.778 0 00.732.464 2.139 2.139 0 00.8.133h3.924q1.8 0 1.33-1.658a7.852 7.852 0 00-.7-1.327 14.652 14.652 0 00-1.131-1.558q-.633-.762-1.364-1.559t-1.33-1.393q-.6-.6-1.463-1.526a2.3 2.3 0 01-.4-.928 1.938 1.938 0 01.4-.862q.066-.066 1.2-1.758t2.494-3.947a12.33 12.33 0 001.563-3.25q.4-1.458-1.2-1.459z" fill-rule="evenodd"/></symbol><symbol id="icon-soc-yandex" viewBox="0 0 29.969 29.938"><path d="M15.242.013s-.664 8.8 2.572 12.016 12.155 2.712 12.155 2.712v.452s-8.92-.506-12.156 2.713-2.572 12.016-2.572 12.016l-.517.025s.664-8.8-2.571-12.015S-.003 15.219-.003 15.219v-.478s8.92.506 12.156-2.713S14.725.013 14.725.013h.517z" fill-rule="evenodd"/></symbol><symbol id="icon-soc-yout" viewBox="0 0 31.625 22.188"><path d="M12.549 6.322l8.539 4.452-8.539 4.4v-8.85zm-7.8-6c-.012 0-.112.009-.3.026s-.324.036-.406.053-.221.044-.415.079a2.56 2.56 0 00-.5.141Q2.916.71 2.634.85a3.391 3.391 0 00-.547.343 4.179 4.179 0 00-.512.466l-.247.3a4.484 4.484 0 00-.565 1.082 7 7 0 00-.441 1.751 37.15 37.15 0 00-.318 5.1v3.1q.017.723.1 2t.221 2.4a6.684 6.684 0 00.468 1.777 5.917 5.917 0 00.512 1.029 3.247 3.247 0 00.273.325 3.52 3.52 0 001 .722 5.322 5.322 0 00.9.369 8.174 8.174 0 00.961.176l.635.071.864.07q.847.053 3.537.132t6.343.114q6.634 0 11.062-.334c.012 0 .109-.009.291-.026s.318-.036.406-.053.229-.044.423-.079a2.49 2.49 0 00.5-.141q.212-.088.494-.22a2.977 2.977 0 00.547-.334 4.2 4.2 0 00.512-.467l.247-.3a4.468 4.468 0 00.565-1.082 7 7 0 00.441-1.75 37.207 37.207 0 00.317-5.1V9.188q-.018-.721-.1-2t-.217-2.4a6.685 6.685 0 00-.468-1.777 5.9 5.9 0 00-.512-1.029 3.433 3.433 0 00-.273-.326 4.193 4.193 0 00-.512-.466 3.409 3.409 0 00-.547-.343Q28.712.706 28.5.618a2.557 2.557 0 00-.5-.141c-.194-.035-.332-.061-.415-.079s-.218-.035-.406-.053-.288-.026-.3-.026l-1.288-.07Q24.303.16 21.542.082t-5.725-.08q-6.634 0-11.062.317z" fill-rule="evenodd"/></symbol><symbol id="icon-soc-youtube" viewBox="0 0 23.813 28.719"><path d="M14.546 18.859a1.033 1.033 0 00-.723.352v4.823a1.03 1.03 0 00.723.353q.627 0 .627-1.074v-3.381q0-1.072-.627-1.073zm5.335 0q-.723 0-.723 1.089v.737h1.446v-.737q0-1.089-.723-1.089zm-14.8 6.714H3.474v-9.118H1.787v-1.506h5.014v1.506h-1.72v9.118zm4.628-.866a2.353 2.353 0 01-1.639.978.866.866 0 01-.932-.593 3.943 3.943 0 01-.128-1.17v-6.265h1.43v5.837a4.371 4.371 0 00.016.56.328.328 0 00.337.337 1.278 1.278 0 00.916-.673v-6.057h1.43v7.916h-1.43v-.866zm6.749.1a1.112 1.112 0 01-1.141.881 2 2 0 01-1.494-.881v.769h-1.43V14.949h1.43v3.477a1.935 1.935 0 011.494-.865 1.115 1.115 0 011.141.9 5.658 5.658 0 01.145 1.586v3.157a5.854 5.854 0 01-.145 1.6zm5.544-.834a1.985 1.985 0 01-2.073 1.715 2.064 2.064 0 01-1.735-.817 3 3 0 01-.466-1.859V20.24a3.084 3.084 0 01.45-1.859 2.2 2.2 0 013.423 0 3.175 3.175 0 01.434 1.859v1.65h-2.877v1.394q0 1.106.739 1.106a.614.614 0 00.643-.577 8.023 8.023 0 00.032-.977h1.463v.208a6.848 6.848 0 01-.033.929zM11.569 9.532q-.69 0-.691-1.121V5.045q0-1.105.691-1.105t.691 1.105v3.366q.009 1.121-.691 1.121zm11.827 5.3a3.014 3.014 0 00-2.571-2.339q-2.957-.321-8.918-.321t-8.9.321a2.92 2.92 0 00-1.655.753 3.043 3.043 0 00-.932 1.586 27.661 27.661 0 00-.418 5.609 27.07 27.07 0 00.418 5.608 2.925 2.925 0 00.924 1.587 2.855 2.855 0 001.647.737 86.229 86.229 0 008.919.337 86.22 86.22 0 008.918-.337 2.816 2.816 0 001.639-.737 3.039 3.039 0 00.932-1.587 27.643 27.643 0 00.418-5.608 27.1 27.1 0 00-.418-5.609zM6.684 4.208L5.543-.006h-1.7q.45 1.346 1.044 3a27.218 27.218 0 01.981 3.4v4.342h1.607V6.394L9.419 0H7.78zm6.589-.753a2.168 2.168 0 00-3.391 0 3.117 3.117 0 00-.45 1.875v2.8a3.2 3.2 0 00.45 1.891 2.168 2.168 0 003.391 0 3.157 3.157 0 00.45-1.891v-2.8a3.124 3.124 0 00-.45-1.875zm4.371-.721v6.105a1.28 1.28 0 01-.916.689.335.335 0 01-.338-.352 4.153 4.153 0 01-.016-.561V2.734h-1.462v6.314a4.089 4.089 0 00.128 1.2.892.892 0 00.948.593 2.316 2.316 0 001.656-.993v.881h1.462v-8h-1.462z" fill-rule="evenodd"/></symbol><symbol id="icon-talk" viewBox="0 0 25 25"><path d="M11.775.626c6.2-.08 10.122 2.7 12.2 6.741a11.058 11.058 0 01-.626 10.125c-1.977 2.852-6.6 6.439-12.059 5.6a24.425 24.425 0 01-3.953-.939c-.638.539-6.069 2.569-7.2 2.133L0 23.834c1.126-1.3 1.408-2.8 1.849-4.863l.142-1.024-.882-1.394A9.855 9.855 0 01.085 10.41C1.06 5.5 4.171 2.623 8.589 1.166a11.957 11.957 0 013.186-.54zm-5.091 9.556a1.678 1.678 0 11-1.678 1.678 1.678 1.678 0 011.678-1.678zm5.835 0a1.678 1.678 0 11-1.678 1.678 1.678 1.678 0 011.678-1.678zm5.806 0a1.678 1.678 0 11-1.678 1.678 1.678 1.678 0 011.677-1.678z" fill-rule="evenodd"/></symbol><symbol id="icon-view" viewBox="0 0 31.688 22.438"><path d="M15.888.008c9.985 0 15.8 11.211 15.8 11.211s-5.815 11.21-15.8 11.21S.001 11.219.001 11.219 5.902.008 15.888.008zm-.009 2.5c7.991 0 12.644 8.709 12.644 8.709s-4.653 8.8-12.644 8.8-12.714-8.798-12.714-8.798 4.723-8.71 12.714-8.71zm-.574 3.978a4.753 4.753 0 11-4.753 4.753 4.753 4.753 0 014.753-4.751zm-2.161-.13a2.688 2.688 0 11-2.688 2.688 2.688 2.688 0 012.688-2.688z" fill-rule="evenodd"/></symbol><symbol id="icon-zoom" viewBox="0 0 33 31"><path d="M14.55 2.124c6.663-.09 10.64 3.4 12.455 8.094 1.594 4.126.287 10.023-2.27 12.2l.029.057 6.46 6.343-.024.082-1.314 1.3-.058-.029L23.4 23.8l-.087.029c-2.413 2.564-8.251 3.746-12.513 2.119a12.277 12.277 0 01.262-23.135 13.368 13.368 0 013.488-.689zm.15 2.124a11.343 11.343 0 00-2.386.4 10.236 10.236 0 00-6.751 6.229C2.9 17.7 8.863 25.534 16.034 24.6c4.406-.574 7.351-2.81 8.788-6.286 3.093-7.48-2.815-14.102-10.122-14.066z" fill-rule="evenodd"/></symbol> <view id="icon-admin-view-lil" viewBox="0 0 18.375 21.375"/><view id="icon-admin-view-black" viewBox="0 31.375 18.375 21.375"/><view id="icon-admin-view-white" viewBox="0 62.75 18.375 21.375"/><view id="icon-arr-left-view-lil" viewBox="0 94.125 15 26"/><view id="icon-arr-left-view-black" viewBox="0 130.125 15 26"/><view id="icon-arr-left-view-white" viewBox="0 166.125 15 26"/><view id="icon-arr-right-view-lil" viewBox="0 202.125 15 26"/><view id="icon-arr-right-view-black" viewBox="0 238.125 15 26"/><view id="icon-arr-right-view-white" viewBox="0 274.125 15 26"/><view id="icon-arr_down-view-lil" viewBox="0 310.125 10 5"/><view id="icon-arr_down-view-black" viewBox="0 325.125 10 5"/><view id="icon-arr_down-view-white" viewBox="0 340.125 10 5"/><view id="icon-calendar-view-lil" viewBox="0 355.125 25.094 27.031"/><view id="icon-calendar-view-black" viewBox="0 392.156 25.094 27.031"/><view id="icon-calendar-view-white" viewBox="0 429.187 25.094 27.031"/><view id="icon-cat-view-lil" viewBox="0 466.21799999999996 23 20"/><view id="icon-cat-view-black" viewBox="0 496.21799999999996 23 20"/><view id="icon-cat-view-white" viewBox="0 526.218 23 20"/><view id="icon-check-view-lil" viewBox="0 556.218 14 10"/><view id="icon-check-view-black" viewBox="0 576.218 14 10"/><view id="icon-check-view-white" viewBox="0 596.218 14 10"/><view id="icon-clock-view-lil" viewBox="0 616.218 28.406 28.25"/><view id="icon-clock-view-black" viewBox="0 654.468 28.406 28.25"/><view id="icon-clock-view-white" viewBox="0 692.718 28.406 28.25"/><view id="icon-close-view-lil" viewBox="0 730.968 14 14"/><view id="icon-close-view-black" viewBox="0 754.968 14 14"/><view id="icon-close-view-white" viewBox="0 778.968 14 14"/><view id="icon-fav-view-lil" viewBox="0 802.968 30.969 27.406"/><view id="icon-fav-view-black" viewBox="0 840.3739999999999 30.969 27.406"/><view id="icon-fav-view-white" viewBox="0 877.78 30.969 27.406"/><view id="icon-home-view-lil" viewBox="0 915.1859999999999 31 31"/><view id="icon-home-view-black" viewBox="0 956.1859999999999 31 31"/><view id="icon-home-view-white" viewBox="0 997.1859999999999 31 31"/><view id="icon-location-view-lil" viewBox="0 1038.186 21.906 29.219"/><view id="icon-location-view-black" viewBox="0 1077.405 21.906 29.219"/><view id="icon-location-view-white" viewBox="0 1116.624 21.906 29.219"/><view id="icon-menu-close-view-lil" viewBox="0 1155.8429999999998 30 30"/><view id="icon-menu-close-view-black" viewBox="0 1195.8429999999998 30 30"/><view id="icon-menu-close-view-white" viewBox="0 1235.8429999999998 30 30"/><view id="icon-menu-open-view-lil" viewBox="0 1275.8429999999998 32 19"/><view id="icon-menu-open-view-black" viewBox="0 1304.8429999999998 32 19"/><view id="icon-menu-open-view-white" viewBox="0 1333.8429999999998 32 19"/><view id="icon-share-view-lil" viewBox="0 1362.8429999999998 33 31"/><view id="icon-share-view-black" viewBox="0 1403.8429999999998 33 31"/><view id="icon-share-view-white" viewBox="0 1444.8429999999998 33 31"/><view id="icon-soc-fb-view-lil" viewBox="0 1485.8429999999998 10 18"/><view id="icon-soc-fb-view-black" viewBox="0 1513.8429999999998 10 18"/><view id="icon-soc-fb-view-white" viewBox="0 1541.8429999999998 10 18"/><view id="icon-soc-inst-view-lil" viewBox="0 1569.8429999999998 18 18"/><view id="icon-soc-inst-view-black" viewBox="0 1597.8429999999998 18 18"/><view id="icon-soc-inst-view-white" viewBox="0 1625.8429999999998 18 18"/><view id="icon-soc-tgm-view-lil" viewBox="0 1653.8429999999998 22 22"/><view id="icon-soc-tgm-view-black" viewBox="0 1685.8429999999998 22 22"/><view id="icon-soc-tgm-view-white" viewBox="0 1717.8429999999998 22 22"/><view id="icon-soc-tw-view-lil" viewBox="0 1749.8429999999998 18 16"/><view id="icon-soc-tw-view-black" viewBox="0 1775.8429999999998 18 16"/><view id="icon-soc-tw-view-white" viewBox="0 1801.8429999999998 18 16"/><view id="icon-soc-vk-view-lil" viewBox="0 1827.8429999999998 35.812 21.218"/><view id="icon-soc-vk-view-black" viewBox="0 1859.061 35.812 21.218"/><view id="icon-soc-vk-view-white" viewBox="0 1890.2789999999998 35.812 21.218"/><view id="icon-soc-yandex-view-lil" viewBox="0 1921.4969999999998 29.969 29.938"/><view id="icon-soc-yandex-view-black" viewBox="0 1961.435 29.969 29.938"/><view id="icon-soc-yandex-view-white" viewBox="0 2001.3729999999998 29.969 29.938"/><view id="icon-soc-yout-view-lil" viewBox="0 2041.311 31.625 22.188"/><view id="icon-soc-yout-view-black" viewBox="0 2073.499 31.625 22.188"/><view id="icon-soc-yout-view-white" viewBox="0 2105.687 31.625 22.188"/><view id="icon-soc-youtube-view-lil" viewBox="0 2137.875 23.813 28.719"/><view id="icon-soc-youtube-view-black" viewBox="0 2176.594 23.813 28.719"/><view id="icon-soc-youtube-view-white" viewBox="0 2215.313 23.813 28.719"/><view id="icon-talk-view-lil" viewBox="0 2254.032 25 25"/><view id="icon-talk-view-black" viewBox="0 2289.032 25 25"/><view id="icon-talk-view-white" viewBox="0 2324.032 25 25"/><view id="icon-view-view-lil" viewBox="0 2359.032 31.688 22.438"/><view id="icon-view-view-black" viewBox="0 2391.4700000000003 31.688 22.438"/><view id="icon-view-view-white" viewBox="0 2423.9080000000004 31.688 22.438"/><view id="icon-zoom-view-lil" viewBox="0 2456.346 33 31"/><view id="icon-zoom-view-black" viewBox="0 2497.346 33 31"/><view id="icon-zoom-view-white" viewBox="0 2538.346 33 31"/> <use xlink:href="#icon-admin" x="0" y="0" width="18.375" height="21.375" style="fill:#6456FF"/><use xlink:href="#icon-admin" x="0" y="31.375" width="18.375" height="21.375" style="fill:#000000"/><use xlink:href="#icon-admin" x="0" y="62.75" width="18.375" height="21.375" style="fill:#ffffff"/><use xlink:href="#icon-arr-left" x="0" y="94.125" width="15" height="26" style="fill:#6456FF"/><use xlink:href="#icon-arr-left" x="0" y="130.125" width="15" height="26" style="fill:#000000"/><use xlink:href="#icon-arr-left" x="0" y="166.125" width="15" height="26" style="fill:#ffffff"/><use xlink:href="#icon-arr-right" x="0" y="202.125" width="15" height="26" style="fill:#6456FF"/><use xlink:href="#icon-arr-right" x="0" y="238.125" width="15" height="26" style="fill:#000000"/><use xlink:href="#icon-arr-right" x="0" y="274.125" width="15" height="26" style="fill:#ffffff"/><use xlink:href="#icon-arr_down" x="0" y="310.125" width="10" height="5" style="fill:#6456FF"/><use xlink:href="#icon-arr_down" x="0" y="325.125" width="10" height="5" style="fill:#000000"/><use xlink:href="#icon-arr_down" x="0" y="340.125" width="10" height="5" style="fill:#ffffff"/><use xlink:href="#icon-calendar" x="0" y="355.125" width="25.094" height="27.031" style="fill:#6456FF"/><use xlink:href="#icon-calendar" x="0" y="392.156" width="25.094" height="27.031" style="fill:#000000"/><use xlink:href="#icon-calendar" x="0" y="429.187" width="25.094" height="27.031" style="fill:#ffffff"/><use xlink:href="#icon-cat" x="0" y="466.21799999999996" width="23" height="20" style="fill:#6456FF"/><use xlink:href="#icon-cat" x="0" y="496.21799999999996" width="23" height="20" style="fill:#000000"/><use xlink:href="#icon-cat" x="0" y="526.218" width="23" height="20" style="fill:#ffffff"/><use xlink:href="#icon-check" x="0" y="556.218" width="14" height="10" style="fill:#6456FF"/><use xlink:href="#icon-check" x="0" y="576.218" width="14" height="10" style="fill:#000000"/><use xlink:href="#icon-check" x="0" y="596.218" width="14" height="10" style="fill:#ffffff"/><use xlink:href="#icon-clock" x="0" y="616.218" width="28.406" height="28.25" style="fill:#6456FF"/><use xlink:href="#icon-clock" x="0" y="654.468" width="28.406" height="28.25" style="fill:#000000"/><use xlink:href="#icon-clock" x="0" y="692.718" width="28.406" height="28.25" style="fill:#ffffff"/><use xlink:href="#icon-close" x="0" y="730.968" width="14" height="14" style="fill:#6456FF"/><use xlink:href="#icon-close" x="0" y="754.968" width="14" height="14" style="fill:#000000"/><use xlink:href="#icon-close" x="0" y="778.968" width="14" height="14" style="fill:#ffffff"/><use xlink:href="#icon-fav" x="0" y="802.968" width="30.969" height="27.406" style="fill:#6456FF"/><use xlink:href="#icon-fav" x="0" y="840.3739999999999" width="30.969" height="27.406" style="fill:#000000"/><use xlink:href="#icon-fav" x="0" y="877.78" width="30.969" height="27.406" style="fill:#ffffff"/><use xlink:href="#icon-home" x="0" y="915.1859999999999" width="31" height="31" style="fill:#6456FF"/><use xlink:href="#icon-home" x="0" y="956.1859999999999" width="31" height="31" style="fill:#000000"/><use xlink:href="#icon-home" x="0" y="997.1859999999999" width="31" height="31" style="fill:#ffffff"/><use xlink:href="#icon-location" x="0" y="1038.186" width="21.906" height="29.219" style="fill:#6456FF"/><use xlink:href="#icon-location" x="0" y="1077.405" width="21.906" height="29.219" style="fill:#000000"/><use xlink:href="#icon-location" x="0" y="1116.624" width="21.906" height="29.219" style="fill:#ffffff"/><use xlink:href="#icon-menu-close" x="0" y="1155.8429999999998" width="30" height="30" style="fill:#6456FF"/><use xlink:href="#icon-menu-close" x="0" y="1195.8429999999998" width="30" height="30" style="fill:#000000"/><use xlink:href="#icon-menu-close" x="0" y="1235.8429999999998" width="30" height="30" style="fill:#ffffff"/><use xlink:href="#icon-menu-open" x="0" y="1275.8429999999998" width="32" height="19" style="fill:#6456FF"/><use xlink:href="#icon-menu-open" x="0" y="1304.8429999999998" width="32" height="19" style="fill:#000000"/><use xlink:href="#icon-menu-open" x="0" y="1333.8429999999998" width="32" height="19" style="fill:#ffffff"/><use xlink:href="#icon-share" x="0" y="1362.8429999999998" width="33" height="31" style="fill:#6456FF"/><use xlink:href="#icon-share" x="0" y="1403.8429999999998" width="33" height="31" style="fill:#000000"/><use xlink:href="#icon-share" x="0" y="1444.8429999999998" width="33" height="31" style="fill:#ffffff"/><use xlink:href="#icon-soc-fb" x="0" y="1485.8429999999998" width="10" height="18" style="fill:#6456FF"/><use xlink:href="#icon-soc-fb" x="0" y="1513.8429999999998" width="10" height="18" style="fill:#000000"/><use xlink:href="#icon-soc-fb" x="0" y="1541.8429999999998" width="10" height="18" style="fill:#ffffff"/><use xlink:href="#icon-soc-inst" x="0" y="1569.8429999999998" width="18" height="18" style="fill:#6456FF"/><use xlink:href="#icon-soc-inst" x="0" y="1597.8429999999998" width="18" height="18" style="fill:#000000"/><use xlink:href="#icon-soc-inst" x="0" y="1625.8429999999998" width="18" height="18" style="fill:#ffffff"/><use xlink:href="#icon-soc-tgm" x="0" y="1653.8429999999998" width="22" height="22" style="fill:#6456FF"/><use xlink:href="#icon-soc-tgm" x="0" y="1685.8429999999998" width="22" height="22" style="fill:#000000"/><use xlink:href="#icon-soc-tgm" x="0" y="1717.8429999999998" width="22" height="22" style="fill:#ffffff"/><use xlink:href="#icon-soc-tw" x="0" y="1749.8429999999998" width="18" height="16" style="fill:#6456FF"/><use xlink:href="#icon-soc-tw" x="0" y="1775.8429999999998" width="18" height="16" style="fill:#000000"/><use xlink:href="#icon-soc-tw" x="0" y="1801.8429999999998" width="18" height="16" style="fill:#ffffff"/><use xlink:href="#icon-soc-vk" x="0" y="1827.8429999999998" width="35.812" height="21.218" style="fill:#6456FF"/><use xlink:href="#icon-soc-vk" x="0" y="1859.061" width="35.812" height="21.218" style="fill:#000000"/><use xlink:href="#icon-soc-vk" x="0" y="1890.2789999999998" width="35.812" height="21.218" style="fill:#ffffff"/><use xlink:href="#icon-soc-yandex" x="0" y="1921.4969999999998" width="29.969" height="29.938" style="fill:#6456FF"/><use xlink:href="#icon-soc-yandex" x="0" y="1961.435" width="29.969" height="29.938" style="fill:#000000"/><use xlink:href="#icon-soc-yandex" x="0" y="2001.3729999999998" width="29.969" height="29.938" style="fill:#ffffff"/><use xlink:href="#icon-soc-yout" x="0" y="2041.311" width="31.625" height="22.188" style="fill:#6456FF"/><use xlink:href="#icon-soc-yout" x="0" y="2073.499" width="31.625" height="22.188" style="fill:#000000"/><use xlink:href="#icon-soc-yout" x="0" y="2105.687" width="31.625" height="22.188" style="fill:#ffffff"/><use xlink:href="#icon-soc-youtube" x="0" y="2137.875" width="23.813" height="28.719" style="fill:#6456FF"/><use xlink:href="#icon-soc-youtube" x="0" y="2176.594" width="23.813" height="28.719" style="fill:#000000"/><use xlink:href="#icon-soc-youtube" x="0" y="2215.313" width="23.813" height="28.719" style="fill:#ffffff"/><use xlink:href="#icon-talk" x="0" y="2254.032" width="25" height="25" style="fill:#6456FF"/><use xlink:href="#icon-talk" x="0" y="2289.032" width="25" height="25" style="fill:#000000"/><use xlink:href="#icon-talk" x="0" y="2324.032" width="25" height="25" style="fill:#ffffff"/><use xlink:href="#icon-view" x="0" y="2359.032" width="31.688" height="22.438" style="fill:#6456FF"/><use xlink:href="#icon-view" x="0" y="2391.4700000000003" width="31.688" height="22.438" style="fill:#000000"/><use xlink:href="#icon-view" x="0" y="2423.9080000000004" width="31.688" height="22.438" style="fill:#ffffff"/><use xlink:href="#icon-zoom" x="0" y="2456.346" width="33" height="31" style="fill:#6456FF"/><use xlink:href="#icon-zoom" x="0" y="2497.346" width="33" height="31" style="fill:#000000"/><use xlink:href="#icon-zoom" x="0" y="2538.346" width="33" height="31" style="fill:#ffffff"/></svg>